<svg version="1.1" id="Layer_1" xmlns="http://www.w3.org/2000/svg" xmlns:xlink="http://www.w3.org/1999/xlink" x="0px" y="0px"
	 width="100%" viewBox="0 0 400 320" enable-background="new 0 0 400 320" xml:space="preserve">
<path fill="#000000" opacity="1.000000" stroke="none" 
	d="
M181.301559,58.250408 
	C185.358978,55.891678 189.037582,53.599590 192.859131,51.577648 
	C196.613739,49.591114 199.590103,47.538322 200.568039,42.710068 
	C201.480194,38.206463 205.712296,36.075581 210.173218,36.246090 
	C214.620850,36.416092 218.434540,38.798817 219.356705,43.384399 
	C220.203278,47.593998 222.918243,49.304661 226.183365,51.172543 
	C241.933365,60.182682 257.601837,69.335800 273.266235,78.494591 
	C275.633667,79.878799 277.693390,80.873421 280.661560,79.641525 
	C285.252747,77.736008 290.244995,79.683220 292.787262,83.725891 
	C295.240417,87.626961 295.030975,92.911827 291.444580,96.102974 
	C288.718414,98.528671 288.157898,101.107651 288.175842,104.428902 
	C288.275726,122.914070 288.277985,141.400177 288.201508,159.885483 
	C288.188538,163.025162 288.670837,165.476013 291.296967,167.761810 
	C294.952576,170.943680 295.278870,176.222610 292.838104,180.083893 
	C290.322266,184.063995 285.312683,185.995041 280.679047,184.277527 
	C278.191315,183.355438 276.350769,183.713516 274.166565,184.990051 
	C257.356567,194.814423 240.493484,204.548233 223.620346,214.264114 
	C221.625473,215.412781 220.512924,216.779968 220.023270,219.204361 
	C218.920776,224.663101 214.897491,227.932465 210.024445,228.001678 
	C205.059570,228.072189 201.000595,224.925903 199.888687,219.434372 
	C199.357147,216.809189 198.107376,215.351028 195.931061,214.169495 
	C181.459076,206.312561 167.848770,196.931580 152.937164,189.844666 
	C152.066269,189.430786 151.428421,188.553070 150.598129,188.022705 
	C146.591156,185.463089 142.987167,182.617294 137.386246,184.436615 
	C132.947189,185.878525 128.883499,183.621964 126.549423,179.303070 
	C124.283478,175.110245 125.068466,170.464615 129.040085,167.169296 
	C131.112747,165.449554 131.714569,163.673111 131.707703,161.184891 
	C131.654343,141.871964 131.651443,122.558670 131.721085,103.245811 
	C131.730774,100.558380 130.996246,98.609085 128.876694,96.759125 
	C124.848267,93.243088 124.183601,88.395439 126.635468,84.151878 
	C129.167297,79.769928 134.222458,77.629448 139.036652,79.526085 
	C141.752029,80.595856 143.721405,80.076935 146.000946,78.740982 
	C157.633728,71.923492 169.318665,65.194984 181.301559,58.250408 
M139.700043,155.366150 
	C142.828796,150.723953 144.821823,145.511642 147.226257,140.502426 
	C148.107239,138.667038 147.933334,137.218582 147.134644,135.353134 
	C144.599380,129.431595 147.007385,123.259880 152.376251,121.166435 
	C157.417435,119.200768 163.828583,121.935158 165.742142,126.867050 
	C167.900146,132.429047 165.160034,138.065384 158.999588,140.424957 
	C157.096878,141.153702 155.370667,141.733856 154.427856,143.853271 
	C151.451630,150.543625 148.281372,157.147354 145.231461,163.805313 
	C142.758621,169.203583 143.865936,171.478607 149.876434,172.215576 
	C156.967377,173.085007 164.133987,173.332123 171.229431,174.172684 
	C173.649384,174.459366 175.280533,174.026901 176.975433,172.301056 
	C179.370468,169.862289 182.254898,168.141388 185.922714,168.957779 
	C190.638260,170.007370 193.615295,172.862091 194.205933,177.739044 
	C194.786301,182.531250 192.938644,186.165100 188.529099,188.403091 
	C183.909042,190.747879 180.060486,189.179291 176.778152,185.880219 
	C175.011230,184.104309 173.653717,181.981125 170.830887,181.801727 
	C165.637650,181.471695 160.446869,181.103317 155.255066,180.750900 
	C169.635498,190.166428 184.246292,198.697235 198.913635,207.129669 
	C204.665161,210.436264 205.834351,209.749405 205.851242,203.191086 
	C205.896713,185.534256 205.817139,167.876984 205.903671,150.220444 
	C205.925934,145.681305 206.377411,141.221664 201.792923,138.220520 
	C200.837097,137.594803 200.094788,135.949646 200.053391,134.746780 
	C199.914368,130.706665 197.104706,129.100342 194.159836,127.410118 
	C178.423035,118.377899 162.708221,109.307365 146.987335,100.247421 
	C140.355881,96.425705 139.384003,96.959236 139.386765,104.513168 
	C139.392883,121.318153 139.417938,138.123138 139.700043,155.366150 
M235.776535,65.771156 
	C232.493607,64.262772 229.705200,61.576740 224.719635,61.022240 
	C230.557281,67.264061 232.207016,75.657906 241.747620,77.132851 
	C246.839279,77.919998 249.282364,84.604645 247.794952,89.255814 
	C246.225082,94.164742 240.966171,97.425896 236.102921,96.506256 
	C231.194183,95.578018 226.080536,90.198357 227.491852,85.881165 
	C229.290009,80.380539 226.383224,77.045204 223.935623,73.283417 
	C221.030136,68.817841 217.889603,64.503662 214.803497,60.157551 
	C211.243439,55.143990 208.455933,55.129013 204.824478,60.249493 
	C200.779221,65.953461 196.946075,71.807892 192.898407,77.510101 
	C191.535065,79.430717 191.214371,81.229782 191.688278,83.564735 
	C193.033264,90.191612 189.494904,95.544067 183.368805,96.611687 
	C178.044617,97.539551 172.836334,93.736794 171.700180,88.092010 
	C170.554947,82.402115 174.304123,77.290031 180.790298,75.925842 
	C182.607864,75.543564 184.428238,75.416351 185.612305,73.733040 
	C188.745407,69.278976 191.884613,64.829216 195.021393,60.377743 
	C179.098190,68.628769 163.712570,77.460861 148.441330,86.486458 
	C144.997467,88.521851 145.481796,90.381523 149.806992,92.893089 
	C165.645828,102.090446 181.505356,111.252151 197.348877,120.441467 
	C200.510040,122.274948 203.431732,124.432343 207.460175,122.073097 
	C209.062744,121.134544 211.498291,121.334862 213.290405,122.310349 
	C215.673294,123.607384 217.531052,123.112526 219.747208,121.818695 
	C236.429321,112.079414 253.189987,102.474808 269.908203,92.797157 
	C275.020386,89.837875 274.990875,88.541077 269.687195,85.444214 
	C258.612946,78.977905 247.501694,72.574974 235.776535,65.771156 
M275.783539,166.162369 
	C272.700134,159.520584 269.601105,152.885971 266.540405,146.233749 
	C265.174408,143.264877 263.357910,141.174316 259.968719,139.995377 
	C254.072083,137.944153 251.756821,132.002426 254.110138,126.629425 
	C256.332642,121.555077 262.527313,119.106461 267.522858,121.327660 
	C272.936951,123.734962 275.139435,129.460037 272.659698,135.020477 
	C271.965271,136.577606 271.180664,137.931564 272.058624,139.704346 
	C274.456940,144.546936 276.760284,149.436584 279.101227,154.307587 
	C279.929291,136.714340 279.989105,119.294151 279.886444,101.874916 
	C279.861389,97.622421 278.524261,96.990997 274.509552,99.289711 
	C259.048859,108.141937 243.659210,117.118042 228.216446,126.001671 
	C224.245117,128.286224 219.638962,129.757156 219.360229,135.622681 
	C219.294418,137.007935 217.765503,138.559204 216.540253,139.598663 
	C214.699158,141.160553 214.067123,142.950607 214.073364,145.273422 
	C214.126511,165.099564 214.083832,184.926010 214.156540,204.752029 
	C214.174026,209.517532 215.373688,210.146271 219.534424,207.781128 
	C228.944305,202.432129 238.449570,197.232925 247.657791,191.554016 
	C252.923950,188.306259 258.780182,185.946869 263.915344,181.685196 
	C260.970520,180.472229 258.508514,181.429184 256.086365,181.334671 
	C250.639404,181.122147 245.665359,181.558563 241.900558,186.633728 
	C239.552795,189.798645 235.638901,190.178589 231.862747,188.507141 
	C227.695206,186.662491 225.071503,183.601547 225.221359,178.901474 
	C225.361084,174.518768 227.715393,171.435257 231.730179,169.621857 
	C236.003983,167.691483 239.495605,169.176483 242.659195,172.080856 
	C243.873718,173.195862 244.864822,174.565277 246.850113,174.359589 
	C254.948181,173.520569 263.053802,172.754791 271.153870,171.934647 
	C274.212921,171.624924 276.095856,170.138550 275.783539,166.162369 
M207.702621,218.186646 
	C208.355530,219.724472 209.304489,220.847504 210.973434,219.509369 
	C212.173859,218.546875 212.183594,217.084808 210.974731,216.158417 
	C209.281204,214.860641 208.366394,216.100327 207.702621,218.186646 
M210.767761,44.779480 
	C208.981735,43.979221 207.808960,44.599319 207.595352,46.469532 
	C207.473175,47.538975 208.356430,48.462776 209.442383,48.329109 
	C211.195831,48.113270 212.117630,47.108479 210.767761,44.779480 
z"/>
<path fill="#000000" opacity="1.000000" stroke="none" 
	d="
M253.766846,257.132568 
	C250.769226,248.775818 248.018860,240.744919 244.970200,232.828888 
	C243.597092,229.263565 244.259125,227.213730 248.014893,226.082031 
	C251.993362,224.883224 255.981094,223.629562 259.802429,222.015427 
	C265.143921,219.759186 269.961395,220.339645 274.131470,224.248505 
	C278.174683,228.038467 279.093170,232.730911 276.773041,238.083130 
	C278.507568,238.995895 280.160919,239.728790 281.670959,240.687454 
	C285.511627,243.125717 287.423218,246.760101 287.101562,251.232239 
	C286.781433,255.683212 284.525726,259.235138 280.304077,260.949677 
	C274.614563,263.260345 268.741180,265.115326 263.028442,267.372650 
	C259.034149,268.950958 257.092377,267.244751 255.958252,263.650391 
	C255.308105,261.589905 254.583557,259.552856 253.766846,257.132568 
M259.382324,248.718628 
	C257.206146,253.054779 260.193451,256.510681 262.053284,259.600220 
	C263.467468,261.949463 266.598816,259.573181 268.870300,258.932037 
	C271.584381,258.165955 274.319763,257.293060 276.831604,256.037598 
	C280.214661,254.346680 281.852203,251.313217 280.321381,247.723190 
	C278.779816,244.108109 275.754395,242.524796 271.719635,244.010849 
	C267.814331,245.449203 263.917389,246.910065 259.382324,248.718628 
M258.995911,242.388123 
	C261.943207,241.306198 264.993683,240.438934 267.810425,239.085312 
	C270.974518,237.564774 272.561798,234.839279 271.412659,231.308456 
	C270.339142,228.010010 267.622986,226.710510 264.344452,227.232361 
	C261.758057,227.644043 259.220673,228.508972 256.739655,229.392090 
	C254.682785,230.124237 251.324783,230.541687 252.502853,233.640488 
	C253.738800,236.891586 252.506348,242.145081 258.995911,242.388123 
z"/>
<path fill="#000000" opacity="1.000000" stroke="none" 
	d="
M135.859161,238.958984 
	C137.913879,232.923767 139.866592,227.268433 141.825333,221.615173 
	C142.653839,219.223969 143.312973,216.491440 146.855637,217.768906 
	C150.708740,219.158295 148.577621,221.791580 147.905884,223.965332 
	C147.023224,226.821671 145.964890,229.628632 144.872040,232.413651 
	C143.824615,235.082977 144.326477,236.829895 147.265594,237.788025 
	C152.323044,239.436768 157.353027,241.182709 162.331772,243.054779 
	C164.997040,244.056931 166.379990,243.192535 167.233765,240.648804 
	C168.450577,237.023376 169.772141,233.431931 171.111420,229.849304 
	C171.802231,228.001343 172.730743,226.648407 175.193069,227.485474 
	C177.830490,228.382065 177.857361,229.995056 177.098343,232.178864 
	C173.278763,243.168320 169.547958,254.188980 165.661758,265.154633 
	C164.927551,267.226349 164.237564,270.015381 160.847733,268.532166 
	C157.675446,267.144135 158.969131,264.801758 159.646851,262.603088 
	C160.908829,258.509033 164.542755,254.096359 162.950378,250.461609 
	C161.310394,246.718124 155.493713,246.925171 151.499588,245.461777 
	C138.980621,240.875046 142.398514,240.945435 138.210907,251.743530 
	C137.670059,253.138107 137.181503,254.553009 136.671860,255.959625 
	C135.950500,257.950531 135.170746,259.757202 132.415924,258.759827 
	C129.818893,257.819611 129.936783,256.099731 130.703201,253.956650 
	C132.439224,249.102402 134.080063,244.214127 135.859161,238.958984 
z"/>
<path fill="#000000" opacity="1.000000" stroke="none" 
	d="
M200.279205,270.818298 
	C195.485962,266.650940 194.202499,261.389893 194.075806,255.752289 
	C193.926300,249.098633 193.948151,242.440445 193.955521,235.784286 
	C193.958115,233.447250 193.772018,230.839554 197.287109,230.844208 
	C200.554138,230.848541 200.196121,233.292450 200.391190,235.444153 
	C201.023346,242.417252 200.947830,249.394913 200.800293,256.385040 
	C200.670822,262.519196 203.384659,266.972351 207.816437,268.454987 
	C214.721649,270.765167 221.511200,265.708527 221.670181,257.807953 
	C221.814026,250.660156 221.425919,243.503036 221.449478,236.350632 
	C221.456802,234.123901 220.294479,230.946884 224.370132,230.742767 
	C228.556961,230.533081 228.131760,233.638000 228.161346,236.256943 
	C228.236511,242.913269 227.915878,249.588852 228.315781,256.222839 
	C228.773087,263.808868 225.368988,269.119568 219.242218,272.713226 
	C212.817383,276.481720 206.461426,275.332458 200.279205,270.818298 
z"/>
</svg>