<svg version="1.1" id="Layer_1" xmlns="http://www.w3.org/2000/svg" xmlns:xlink="http://www.w3.org/1999/xlink" x="0px" y="0px"
	 width="100%" viewBox="0 0 396 361" enable-background="new 0 0 396 361" xml:space="preserve">
<path fill="#000000" opacity="1.000000" stroke="none" 
	d="
M221.000000,362.000000 
	C147.333344,362.000000 74.166695,362.000000 1.000029,362.000000 
	C1.000020,241.666702 1.000020,121.333405 1.000010,1.000078 
	C132.999939,1.000052 264.999878,1.000052 396.999878,1.000026 
	C396.999908,121.333252 396.999908,241.666504 396.999939,361.999878 
	C338.500000,362.000000 280.000000,362.000000 221.000000,362.000000 
M159.216446,248.938614 
	C159.273163,248.771713 159.265823,248.607864 159.900589,247.826370 
	C160.162720,247.262238 160.424835,246.698120 161.095001,245.675705 
	C161.666946,244.164886 162.238876,242.654068 162.965378,240.734940 
	C161.243546,240.186188 159.938232,239.770187 158.364563,239.268646 
	C157.264297,242.100357 156.310913,244.554001 155.014481,247.682877 
	C154.374176,249.791489 153.733871,251.900101 152.631760,254.498596 
	C151.532089,254.935303 150.214828,256.002228 149.366989,255.709534 
	C142.255966,253.254471 135.231064,250.549957 127.896309,247.701904 
	C127.896309,247.701904 127.537941,247.700516 127.974663,246.960663 
	C128.029160,246.401062 128.083664,245.841476 128.496063,244.685760 
	C129.352570,241.969620 130.209076,239.253494 131.704010,236.267319 
	C132.427933,234.205292 133.198029,232.155487 133.755310,230.049377 
	C133.787048,229.929428 131.470428,228.835388 131.275940,229.065308 
	C129.972092,230.606613 128.900375,232.356018 127.860023,234.101501 
	C127.538567,234.640854 127.548943,235.377991 127.022247,236.637558 
	C126.156296,239.099533 125.290344,241.561493 124.027267,244.636719 
	C122.917152,247.765076 121.807037,250.893433 120.236084,254.621109 
	C118.567802,258.916351 116.899521,263.211609 115.066154,267.931915 
	C116.819427,268.546570 118.122604,269.003448 119.870102,269.616089 
	C121.573257,264.773560 123.139946,260.319061 125.151108,255.261383 
	C125.899788,252.875977 127.347488,252.307938 129.689163,253.229446 
	C135.506393,255.518631 141.437149,257.534454 147.164612,260.023041 
	C148.239395,260.490051 148.582230,262.641602 148.858429,264.609741 
	C147.086166,269.172974 145.313904,273.736237 143.602737,278.142151 
	C146.644974,280.675171 148.376297,280.470612 149.454178,277.021332 
	C150.732162,272.931732 152.262131,268.920837 154.104630,264.302551 
	C155.158554,261.232056 156.212479,258.161530 157.746643,254.594650 
	C158.188583,252.784027 158.630508,250.973404 159.216446,248.938614 
M208.297379,268.825958 
	C207.900650,271.218781 207.503937,273.611603 206.583588,276.471802 
	C199.241867,284.358521 191.816727,283.460785 186.111496,273.151794 
	C186.008820,268.785950 185.906143,264.420105 185.903397,259.162079 
	C185.756546,256.786163 185.609695,254.410263 185.699356,251.175537 
	C185.734421,249.689087 186.100159,248.107742 185.708649,246.743729 
	C185.340302,245.460297 184.173187,244.406113 183.357513,243.251053 
	C182.493942,244.349152 180.968231,245.402893 180.891159,246.553680 
	C180.661255,249.986160 180.999649,253.456711 181.023834,257.745300 
	C181.109909,258.848358 181.195999,259.951385 181.124817,261.954041 
	C181.380066,265.979584 181.635315,270.005127 181.901550,274.768921 
	C184.234192,281.785980 189.034668,285.722626 196.459824,286.138367 
	C204.019058,286.561615 208.734894,282.500031 212.219910,275.324463 
	C212.441086,272.885101 212.662277,270.445770 213.077301,267.161957 
	C213.031708,265.432526 212.986130,263.703064 213.161987,261.238983 
	C213.107498,256.263306 213.208649,251.277313 212.880661,246.319717 
	C212.805862,245.189041 211.248398,244.156479 210.373337,243.078766 
	C209.612106,244.101440 208.238693,245.100708 208.198578,246.150925 
	C208.047363,250.109192 208.329956,254.084030 208.300873,258.946503 
	C208.361633,261.969574 208.422394,264.992615 208.297379,268.825958 
M273.241943,142.094208 
	C273.173218,136.732529 273.104462,131.370834 273.351440,125.261002 
	C273.404999,123.265465 273.559998,121.266472 273.492035,119.275085 
	C273.326508,114.427597 273.216156,109.902298 277.772064,106.298904 
	C279.224854,105.149879 278.708221,101.510818 279.213287,98.501297 
	C278.865723,97.930222 278.518188,97.359146 278.152985,96.763695 
	C278.152985,96.763695 278.195587,96.757507 278.091461,96.075432 
	C275.272522,91.699913 271.422333,90.864044 266.498718,92.063782 
	C264.409546,92.572845 261.695496,92.249161 259.752625,91.303238 
	C253.833923,88.421555 248.152390,85.052711 241.950958,81.333878 
	C234.385788,77.045959 226.820618,72.758041 218.844910,67.976166 
	C214.400650,65.325706 209.956390,62.675243 205.585999,59.260380 
	C204.735016,52.791073 201.502716,49.098866 196.395935,48.762695 
	C191.369217,48.431793 187.413605,51.970711 185.930527,58.749111 
	C184.913269,59.847496 184.063873,61.202858 182.847946,61.997066 
	C178.878357,64.589851 174.775101,66.978004 170.025589,69.655258 
	C162.114349,74.325310 154.203110,78.995361 145.611588,83.773445 
	C141.139740,86.283150 136.791382,89.064339 132.140289,91.180023 
	C130.035263,92.137566 127.152466,92.456932 124.927177,91.883514 
	C117.351379,89.931374 111.401062,94.918533 112.264534,103.609779 
	C113.009735,105.048622 113.387375,107.061165 114.569275,107.818367 
	C118.067635,110.059616 118.254807,113.190437 118.216583,116.802299 
	C118.152229,122.882797 118.456612,128.967194 118.418633,135.954727 
	C118.539284,139.646606 118.659935,143.338486 118.501266,147.923813 
	C118.584770,153.962784 118.668274,160.001770 118.455055,166.909180 
	C118.469635,172.437302 119.063957,178.149261 113.174828,182.378586 
	C110.988113,186.406631 111.579880,190.123123 114.664551,193.372086 
	C117.619308,196.484253 121.234116,196.677155 125.269745,195.752014 
	C127.126266,195.326401 129.336746,195.638367 131.191498,196.228989 
	C133.210831,196.871994 135.003677,198.226212 137.249557,199.836899 
	C145.405701,204.410645 153.561844,208.984390 162.169449,214.020660 
	C169.404495,218.111710 176.639542,222.202744 184.345047,226.841400 
	C185.000244,228.066162 186.093460,229.243439 186.232330,230.524185 
	C186.743454,235.238480 189.288803,238.139969 193.751511,239.066864 
	C198.785568,240.112427 202.344498,238.046402 204.240234,232.412613 
	C204.672607,230.929855 205.104965,229.447113 206.068344,227.645477 
	C206.372879,227.367233 206.677414,227.088989 207.669571,226.706207 
	C214.782639,222.478638 221.895721,218.251068 229.710251,213.906174 
	C238.601578,208.655670 247.492905,203.405167 257.080780,198.042221 
	C260.598389,195.805649 263.850555,194.201340 268.492188,196.043777 
	C272.557312,197.657349 276.428070,195.249527 278.456879,191.414352 
	C280.667114,187.236221 280.366547,183.092239 275.877838,179.265869 
	C275.047668,177.636215 273.649048,176.058105 273.495667,174.367065 
	C273.063629,169.603165 273.143463,164.792847 273.287659,159.096954 
	C273.189423,153.731949 273.091187,148.366943 273.241943,142.094208 
M261.241150,237.159546 
	C257.907318,235.692276 254.259308,232.542145 251.302536,233.094223 
	C244.296631,234.402298 237.618790,237.467377 230.426071,239.954391 
	C231.705078,242.863556 232.563797,244.816727 233.537262,247.462158 
	C234.502792,249.848282 235.468323,252.234390 236.569733,255.355865 
	C238.357315,259.100525 240.144897,262.845215 241.339478,267.171295 
	C242.785980,271.244049 244.232483,275.316803 245.808182,279.753296 
	C253.074387,276.945740 259.589600,274.585114 265.976807,271.917969 
	C272.899078,269.027435 274.932953,263.107117 271.604095,255.403961 
	C270.333527,254.171829 269.181641,252.775436 267.761932,251.749725 
	C266.044067,250.508621 264.099609,249.581177 262.754089,247.957031 
	C262.347931,244.573868 261.941772,241.190689 261.241150,237.159546 
z"/>
<path fill="#9754C1" opacity="1.000000" stroke="none" 
	d="
M276.256073,179.902008 
	C280.366547,183.092239 280.667114,187.236221 278.456879,191.414352 
	C276.428070,195.249527 272.557312,197.657349 268.492188,196.043777 
	C263.850555,194.201340 260.598389,195.805649 256.391541,197.911438 
	C254.346130,196.600357 252.989960,195.420059 251.829681,194.008575 
	C252.603577,193.490707 253.181580,193.204056 253.759598,192.917389 
	C249.563797,192.069565 245.967117,192.298019 242.385330,192.670120 
	C236.794662,193.250961 231.138245,192.567657 226.993469,198.457901 
	C224.381607,202.169662 217.672394,201.077545 214.410385,197.762253 
	C211.179672,194.478775 211.087631,188.831772 214.201828,184.966736 
	C217.219833,181.221069 222.950958,179.766495 226.083649,183.178955 
	C230.116104,187.571548 234.417236,186.829041 239.193420,186.296066 
	C244.473679,185.706848 249.778961,185.179138 255.084564,185.033783 
	C258.971680,184.927292 261.793762,183.673706 263.764526,180.010941 
	C268.210052,179.973129 272.233063,179.937561 276.256073,179.902008 
M218.597397,190.039520 
	C219.344513,191.394028 219.902664,192.941452 220.961044,193.978165 
	C221.254807,194.265915 223.518021,193.301895 223.990051,192.431046 
	C224.443512,191.594467 223.933289,189.199020 223.521912,189.117020 
	C222.061951,188.825974 220.463287,189.230713 218.597397,190.039520 
M271.849152,189.404587 
	C271.599884,187.658539 271.350586,185.912506 271.101288,184.166443 
	C269.802307,184.750946 267.596680,185.098663 267.370789,185.963455 
	C266.631104,188.795517 268.152496,190.237900 271.849152,189.404587 
z"/>
<path fill="#9955C3" opacity="1.000000" stroke="none" 
	d="
M136.895264,199.270386 
	C135.003677,198.226212 133.210831,196.871994 131.191498,196.228989 
	C129.336746,195.638367 127.126266,195.326401 125.269745,195.752014 
	C121.234116,196.677155 117.619308,196.484253 114.664551,193.372086 
	C111.579880,190.123123 110.988113,186.406631 113.835526,182.190079 
	C115.724129,182.786774 116.952042,183.571991 118.197159,184.681335 
	C118.797668,186.780701 119.181641,188.672104 120.101799,190.251038 
	C120.337334,190.655182 123.141022,190.327042 123.266808,189.897064 
	C123.782562,188.134171 123.719620,186.201965 124.046783,184.036804 
	C125.772606,182.837830 127.321312,181.934143 129.145737,181.262802 
	C131.945206,186.731720 137.103470,184.112427 140.970886,185.560394 
	C141.337982,185.663467 141.697205,185.571854 142.454712,185.467316 
	C145.893417,185.751144 148.933868,186.047897 152.116089,186.678650 
	C154.173920,187.320389 156.089935,187.628128 158.375351,187.908417 
	C160.177994,186.952667 161.524063,185.830673 163.063324,185.137878 
	C165.945618,183.840622 168.970917,181.781998 171.880402,181.871490 
	C176.502396,182.013626 179.171036,185.587509 179.730362,190.146286 
	C180.271255,194.554977 178.345200,197.868469 174.233032,199.762222 
	C169.844711,201.783127 166.202759,200.435669 162.983795,197.225449 
	C161.732147,195.977234 160.586990,193.844849 159.185730,193.656067 
	C152.429977,192.745834 145.603439,192.361084 137.583786,191.687607 
	C139.509979,193.428406 140.339691,194.178253 140.803253,195.014130 
	C139.256516,196.490219 138.075882,197.880310 136.895264,199.270386 
M173.139648,190.043716 
	C171.660889,189.516037 170.198578,188.730591 168.692276,188.634521 
	C168.295349,188.609192 167.208893,190.853516 167.447647,191.801620 
	C167.687042,192.752167 169.666000,194.223206 170.046356,194.005447 
	C171.346054,193.261414 172.277847,191.874725 173.139648,190.043716 
z"/>
<path fill="#3927A7" opacity="1.000000" stroke="none" 
	d="
M205.512131,60.024780 
	C209.956390,62.675243 214.400650,65.325706 218.838257,68.568741 
	C217.322495,70.230789 215.813400,71.300270 214.002686,72.301056 
	C212.113449,72.493187 210.726669,68.598259 208.543900,72.003357 
	C206.025757,72.016838 203.950745,72.031509 201.596542,71.835434 
	C197.049820,66.205490 194.312195,66.246849 190.366379,71.739937 
	C189.513687,72.927002 188.516693,74.010429 187.086823,75.112549 
	C184.604645,75.018829 182.621857,74.954163 180.692017,74.553253 
	C180.938034,73.244942 181.131073,72.272873 181.462463,70.604057 
	C179.043411,71.739578 177.344955,72.536850 175.301483,73.145149 
	C173.545410,71.785744 172.134338,70.615311 170.723267,69.444878 
	C174.775101,66.978004 178.878357,64.589851 182.847946,61.997066 
	C184.063873,61.202858 184.913269,59.847496 186.399170,58.370811 
	C188.744049,58.001976 190.620270,58.011436 192.586182,58.374451 
	C195.438782,62.807320 196.670990,62.675793 199.591797,58.022648 
	C201.806046,58.686218 203.659088,59.355499 205.512131,60.024780 
z"/>
<path fill="#57349F" opacity="1.000000" stroke="none" 
	d="
M118.605896,135.049942 
	C118.456612,128.967194 118.152229,122.882797 118.216583,116.802299 
	C118.254807,113.190437 118.067635,110.059616 114.569275,107.818367 
	C113.387375,107.061165 113.009735,105.048622 112.578644,103.096146 
	C114.616455,102.060951 116.340157,101.539383 118.207489,101.342514 
	C120.989166,105.828369 123.115311,104.787857 125.395233,101.015381 
	C127.507545,101.011345 129.197235,101.007492 131.015961,101.328461 
	C132.454529,102.829956 133.643921,104.188805 135.097336,105.147278 
	C138.676895,107.507874 142.377792,109.684502 145.763947,112.154846 
	C144.293991,113.675827 143.090012,114.977058 141.532501,116.205643 
	C137.444092,114.026802 133.755737,111.831772 129.959351,109.842926 
	C127.000717,108.292946 125.155441,109.295448 124.951546,112.696068 
	C124.744835,116.143715 124.687767,119.600342 124.172867,123.043823 
	C120.621277,122.693962 120.065697,124.550690 119.898834,127.196503 
	C119.732674,129.831024 119.057747,132.433441 118.605896,135.049942 
z"/>
<path fill="#4D30A9" opacity="1.000000" stroke="none" 
	d="
M118.063866,101.017822 
	C116.340157,101.539383 114.616455,102.060951 112.598167,102.737183 
	C111.401062,94.918533 117.351379,89.931374 124.927177,91.883514 
	C127.152466,92.456932 130.035263,92.137566 132.140289,91.180023 
	C136.791382,89.064339 141.139740,86.283150 146.350296,83.840340 
	C148.420486,85.014748 149.751984,86.122261 150.904556,87.518929 
	C149.878128,88.282669 148.991196,88.698975 148.189377,89.241158 
	C142.412231,93.147675 136.652313,97.079704 130.886932,101.003632 
	C129.197235,101.007492 127.507545,101.011345 125.241135,100.707535 
	C122.096214,96.674965 119.958046,97.543350 118.063866,101.017822 
z"/>
<path fill="#4B2FA8" opacity="1.000000" stroke="none" 
	d="
M242.378540,81.873497 
	C248.152390,85.052711 253.833923,88.421555 259.752625,91.303238 
	C261.695496,92.249161 264.409546,92.572845 266.498718,92.063782 
	C271.422333,90.864044 275.272522,91.699913 277.753845,96.474457 
	C275.906097,97.658257 274.395996,98.443031 272.597290,99.045578 
	C270.835663,98.723686 269.362640,98.584030 267.480042,98.260391 
	C264.533966,97.011055 262.052734,96.176086 260.303650,99.441422 
	C251.613388,94.318893 243.221603,89.385445 234.948669,84.104126 
	C237.504547,83.128662 239.941544,82.501076 242.378540,81.873497 
z"/>
<path fill="#5735AF" opacity="1.000000" stroke="none" 
	d="
M272.885895,99.227798 
	C274.395996,98.443031 275.906097,97.658257 277.805908,96.815498 
	C278.195587,96.757507 278.152985,96.763695 278.148560,97.033432 
	C278.460358,97.872482 278.776550,98.441803 279.092712,99.011131 
	C278.708221,101.510818 279.224854,105.149879 277.772064,106.298904 
	C273.216156,109.902298 273.326508,114.427597 273.492035,119.275085 
	C273.559998,121.266472 273.404999,123.265465 272.984650,125.436249 
	C272.407227,125.080910 272.196594,124.550323 271.992676,123.554123 
	C271.998596,120.641022 271.857483,118.183601 272.029877,115.748383 
	C272.288147,112.099976 270.690460,110.600571 266.875793,110.760208 
	C264.880371,110.299911 263.072540,109.697906 261.421814,109.988434 
	C259.568237,110.314659 257.856598,111.447205 255.942902,111.849785 
	C254.516937,110.481628 253.231293,109.492653 252.145386,108.197266 
	C254.986710,105.026718 260.924591,105.457527 260.602112,99.630516 
	C262.052734,96.176086 264.533966,97.011055 267.221985,98.517967 
	C267.408203,100.505188 267.168518,102.141449 267.632141,103.545502 
	C267.786530,104.013145 270.402954,104.390503 270.751343,103.935089 
	C271.771240,102.601913 272.215881,100.828651 272.885895,99.227798 
z"/>
<path fill="#BE68D1" opacity="1.000000" stroke="none" 
	d="
M204.028717,233.062958 
	C202.344498,238.046402 198.785568,240.112427 193.751511,239.066864 
	C189.288803,238.139969 186.743454,235.238480 186.232330,230.524185 
	C186.093460,229.243439 185.000244,228.066162 184.220917,226.243286 
	C185.398651,224.428711 186.700516,223.212250 188.374283,222.024673 
	C189.480942,221.978760 190.215683,221.903976 191.106079,222.179047 
	C194.600296,224.784637 197.847626,224.881805 201.351257,222.123138 
	C202.472290,222.034836 203.216080,221.941711 204.137878,222.133606 
	C205.204575,223.882675 206.093262,225.346710 206.981949,226.810745 
	C206.677414,227.088989 206.372879,227.367233 205.483185,227.951141 
	C204.608261,229.858841 204.318497,231.460907 204.028717,233.062958 
M193.929565,227.329010 
	C193.868973,228.902939 193.546219,230.542526 193.913651,232.009232 
	C194.018646,232.428375 196.404526,232.834549 197.234360,232.358109 
	C198.080475,231.872330 198.973633,229.618027 198.669876,229.314255 
	C197.603592,228.247894 196.030823,227.687988 193.929565,227.329010 
z"/>
<path fill="#6D3FB1" opacity="1.000000" stroke="none" 
	d="
M149.262833,264.015747 
	C148.582230,262.641602 148.239395,260.490051 147.164612,260.023041 
	C141.437149,257.534454 135.506393,255.518631 129.689163,253.229446 
	C127.347488,252.307938 125.899788,252.875977 124.726982,255.352829 
	C123.100876,254.970108 121.898895,254.495941 120.696915,254.021774 
	C121.807037,250.893433 122.917152,247.765076 124.516434,244.261017 
	C126.049774,244.350845 127.093964,244.816360 128.138153,245.281876 
	C128.083664,245.841476 128.029160,246.401062 127.808853,247.344971 
	C127.798759,247.853546 127.977821,247.917313 128.180222,247.920563 
	C135.231064,250.549957 142.255966,253.254471 149.366989,255.709534 
	C150.214828,256.002228 151.532089,254.935303 153.223999,254.276703 
	C154.966293,254.400223 156.116348,254.745621 157.266403,255.091003 
	C156.212479,258.161530 155.158554,261.232056 153.598145,264.454742 
	C151.815384,264.409882 150.539108,264.212830 149.262833,264.015747 
z"/>
<path fill="#8B4EC0" opacity="1.000000" stroke="none" 
	d="
M276.066956,179.583939 
	C272.233063,179.937561 268.210052,179.973129 263.625092,179.668289 
	C260.200653,172.949936 257.338165,166.571991 254.867706,160.034912 
	C256.904083,159.558990 258.548401,159.242188 260.443268,159.180222 
	C262.477448,162.982895 264.261078,166.530701 266.049255,170.311188 
	C266.478302,170.723419 266.902832,170.902969 267.327362,171.082504 
	C267.173279,170.721344 267.019165,170.360168 266.873932,169.544678 
	C267.007141,166.065414 267.131500,163.040482 267.666931,160.014908 
	C269.725830,160.009796 271.373688,160.005310 273.021515,160.000824 
	C273.143463,164.792847 273.063629,169.603165 273.495667,174.367065 
	C273.649048,176.058105 275.047668,177.636215 276.066956,179.583939 
z"/>
<path fill="#9251BF" opacity="1.000000" stroke="none" 
	d="
M271.714691,256.053894 
	C274.932953,263.107117 272.899078,269.027435 265.976807,271.917969 
	C259.589600,274.585114 253.074387,276.945740 245.808182,279.753296 
	C244.232483,275.316803 242.785980,271.244049 241.747223,266.692413 
	C242.518555,265.768402 242.882126,265.323242 243.613007,264.889893 
	C244.438309,265.680450 244.958160,266.429810 245.344513,267.242615 
	C248.472946,273.824280 248.464310,273.825287 255.170486,271.228516 
	C257.477753,270.335114 259.805420,269.492920 262.099609,268.567383 
	C268.260651,266.081787 269.505188,263.537048 268.106628,256.912170 
	C269.518707,256.536926 270.616699,256.295410 271.714691,256.053894 
z"/>
<path fill="#6D3FB1" opacity="1.000000" stroke="none" 
	d="
M243.245697,264.878113 
	C242.882126,265.323242 242.518555,265.768402 242.043716,266.401703 
	C240.144897,262.845215 238.357315,259.100525 236.845535,254.699524 
	C238.217422,253.642792 239.313492,253.242386 240.633728,253.138855 
	C241.375473,254.049469 241.811264,255.091095 242.423798,255.208206 
	C246.716156,256.028717 257.578522,249.404343 259.678711,245.096222 
	C260.774567,246.269272 261.513885,247.393631 262.253204,248.517990 
	C264.099609,249.581177 266.044067,250.508621 267.761932,251.749725 
	C269.181641,252.775436 270.333527,254.171829 271.659393,255.728943 
	C270.616699,256.295410 269.518707,256.536926 267.806458,256.735382 
	C264.489685,255.893097 261.109467,253.663666 259.211761,254.562897 
	C253.521378,257.259308 245.014267,256.095673 243.245697,264.878113 
z"/>
<path fill="#9251BF" opacity="1.000000" stroke="none" 
	d="
M128.870010,181.030441 
	C127.321312,181.934143 125.772606,182.837830 123.651115,183.907455 
	C121.445534,184.167999 119.812737,184.262604 118.179947,184.357208 
	C116.952042,183.571991 115.724129,182.786774 114.088341,181.983582 
	C119.063957,178.149261 118.469635,172.437302 118.959641,166.467590 
	C121.145775,166.020386 122.827324,166.014755 124.608994,166.312378 
	C124.842674,167.605774 124.976250,168.595917 125.152122,169.899612 
	C126.062508,169.049805 126.615204,168.533890 127.553322,168.017624 
	C129.673462,168.358948 131.408173,168.700607 133.085236,169.404221 
	C131.641724,173.520920 130.255859,177.275681 128.870010,181.030441 
z"/>
<path fill="#A35AC5" opacity="1.000000" stroke="none" 
	d="
M251.633820,194.239777 
	C252.989960,195.420059 254.346130,196.600357 256.043243,197.967651 
	C247.492905,203.405167 238.601578,208.655670 229.265121,213.607437 
	C227.752136,211.949692 226.684280,210.590683 225.839752,209.003159 
	C234.586639,203.929688 243.110229,199.084732 251.633820,194.239777 
z"/>
<path fill="#A35AC5" opacity="1.000000" stroke="none" 
	d="
M137.072418,199.553650 
	C138.075882,197.880310 139.256516,196.490219 141.146194,195.079727 
	C144.583389,196.830612 147.244446,198.717484 150.054398,200.347763 
	C155.016251,203.226547 160.068817,205.948990 164.970337,209.086227 
	C163.810822,210.809769 162.764404,212.183960 161.717987,213.558167 
	C153.561844,208.984390 145.405701,204.410645 137.072418,199.553650 
z"/>
<path fill="#412AA5" opacity="1.000000" stroke="none" 
	d="
M151.083466,87.229767 
	C149.751984,86.122261 148.420486,85.014748 146.690445,83.786324 
	C154.203110,78.995361 162.114349,74.325310 170.374420,69.550064 
	C172.134338,70.615311 173.545410,71.785744 175.057434,73.398575 
	C167.133408,78.303909 159.108429,82.766838 151.083466,87.229767 
z"/>
<path fill="#9251BF" opacity="1.000000" stroke="none" 
	d="
M211.785706,276.008606 
	C208.734894,282.500031 204.019058,286.561615 196.459824,286.138367 
	C189.034668,285.722626 184.234192,281.785980 182.311066,274.393982 
	C183.827423,274.008728 184.934265,273.998413 186.041107,273.988098 
	C191.816727,283.460785 199.241867,284.358521 207.235199,276.237732 
	C209.186447,276.005341 210.486069,276.006989 211.785706,276.008606 
z"/>
<path fill="#AE5FC7" opacity="1.000000" stroke="none" 
	d="
M161.943726,213.789413 
	C162.764404,212.183960 163.810822,210.809769 165.317047,209.168045 
	C173.185364,213.265594 180.593872,217.630676 188.002380,221.995789 
	C186.700516,223.212250 185.398651,224.428711 183.985687,225.969482 
	C176.639542,222.202744 169.404495,218.111710 161.943726,213.789413 
z"/>
<path fill="#AE5FC7" opacity="1.000000" stroke="none" 
	d="
M225.616425,209.231689 
	C226.684280,210.590683 227.752136,211.949692 228.914398,213.666107 
	C221.895721,218.251068 214.782639,222.478638 207.325760,226.758484 
	C206.093262,225.346710 205.204575,223.882675 204.326508,221.857727 
	C211.430222,217.275085 218.523315,213.253387 225.616425,209.231689 
z"/>
<path fill="#412AA5" opacity="1.000000" stroke="none" 
	d="
M242.164749,81.603683 
	C239.941544,82.501076 237.504547,83.128662 234.598785,84.004501 
	C227.521439,80.291756 220.912857,76.330757 214.304291,72.369751 
	C215.813400,71.300270 217.322495,70.230789 219.043518,68.815712 
	C226.820618,72.758041 234.385788,77.045959 242.164749,81.603683 
z"/>
<path fill="#4B2FA8" opacity="1.000000" stroke="none" 
	d="
M233.422516,246.769913 
	C232.563797,244.816727 231.705078,242.863556 230.426071,239.954391 
	C237.618790,237.467377 244.296631,234.402298 251.302536,233.094223 
	C254.259308,232.542145 257.907318,235.692276 260.991455,237.534821 
	C259.480072,238.279709 258.218353,238.649323 256.627411,238.880646 
	C252.261734,236.998215 240.246780,239.631516 237.474045,242.962799 
	C237.135117,243.370026 237.351700,244.239624 236.872498,244.959396 
	C235.430283,245.605881 234.426407,246.187897 233.422516,246.769913 
z"/>
<path fill="#7544BD" opacity="1.000000" stroke="none" 
	d="
M118.512268,135.502335 
	C119.057747,132.433441 119.732674,129.831024 119.898834,127.196503 
	C120.065697,124.550690 120.621277,122.693962 124.241013,123.504280 
	C124.638908,131.657669 124.576370,139.341385 124.151871,147.028381 
	C122.120132,147.031219 120.450356,147.030792 118.780586,147.030365 
	C118.659935,143.338486 118.539284,139.646606 118.512268,135.502335 
z"/>
<path fill="#2D209C" opacity="1.000000" stroke="none" 
	d="
M192.496506,58.020897 
	C190.620270,58.011436 188.744049,58.001976 186.463409,58.001595 
	C187.413605,51.970711 191.369217,48.431793 196.395935,48.762695 
	C201.502716,49.098866 204.735016,52.791073 205.549072,59.642582 
	C203.659088,59.355499 201.806046,58.686218 199.402481,57.722309 
	C196.408371,54.142311 194.304977,54.501759 192.496506,58.020897 
z"/>
<path fill="#8B4EC0" opacity="1.000000" stroke="none" 
	d="
M118.640930,147.477081 
	C120.450356,147.030792 122.120132,147.031219 124.245422,147.486053 
	C124.636925,153.963348 124.572906,159.986237 124.508881,166.009125 
	C122.827324,166.014755 121.145775,166.020386 119.107994,166.033386 
	C118.668274,160.001770 118.584770,153.962784 118.640930,147.477081 
z"/>
<path fill="#7544BD" opacity="1.000000" stroke="none" 
	d="
M271.985962,124.019745 
	C272.196594,124.550323 272.407227,125.080910 272.826782,125.810326 
	C273.104462,131.370834 273.173218,136.732529 272.709381,142.548492 
	C270.546448,143.003387 268.916107,143.003967 267.168243,142.548615 
	C267.126862,135.743500 267.202972,129.394333 267.621979,123.070625 
	C269.305206,123.403969 270.645599,123.711861 271.985962,124.019745 
z"/>
<path fill="#7B47BC" opacity="1.000000" stroke="none" 
	d="
M267.285736,143.004562 
	C268.916107,143.003967 270.546448,143.003387 272.584900,143.002365 
	C273.091187,148.366943 273.189423,153.731949 273.154602,159.548889 
	C271.373688,160.005310 269.725830,160.009796 267.541351,159.560699 
	C267.098358,153.739624 267.192047,148.372086 267.285736,143.004562 
z"/>
<path fill="#7D47B6" opacity="1.000000" stroke="none" 
	d="
M149.060638,264.312744 
	C150.539108,264.212830 151.815384,264.409882 153.387268,264.741394 
	C152.262131,268.920837 150.732162,272.931732 149.454178,277.021332 
	C148.376297,280.470612 146.644974,280.675171 143.602737,278.142151 
	C145.313904,273.736237 147.086166,269.172974 149.060638,264.312744 
z"/>
<path fill="#7D47B6" opacity="1.000000" stroke="none" 
	d="
M120.466499,254.321442 
	C121.898895,254.495941 123.100876,254.970108 124.504745,255.654404 
	C123.139946,260.319061 121.573257,264.773560 119.870102,269.616089 
	C118.122604,269.003448 116.819427,268.546570 115.066154,267.931915 
	C116.899521,263.211609 118.567802,258.916351 120.466499,254.321442 
z"/>
<path fill="#57349F" opacity="1.000000" stroke="none" 
	d="
M208.450104,258.052673 
	C208.329956,254.084030 208.047363,250.109192 208.198578,246.150925 
	C208.238693,245.100708 209.612106,244.101440 210.373337,243.078766 
	C211.248398,244.156479 212.805862,245.189041 212.880661,246.319717 
	C213.208649,251.277313 213.107498,256.263306 212.863403,261.332642 
	C211.784943,259.580048 212.225342,256.245483 208.450104,258.052673 
z"/>
<path fill="#412AA5" opacity="1.000000" stroke="none" 
	d="
M181.116074,256.912384 
	C180.999649,253.456711 180.661255,249.986160 180.891159,246.553680 
	C180.968231,245.402893 182.493942,244.349152 183.357513,243.251053 
	C184.173187,244.406113 185.340302,245.460297 185.708649,246.743729 
	C186.100159,248.107742 185.734421,249.689087 185.241486,251.610184 
	C183.561096,253.667343 182.338593,255.289871 181.116074,256.912384 
z"/>
<path fill="#7B47BC" opacity="1.000000" stroke="none" 
	d="
M186.076294,273.569946 
	C184.934265,273.998413 183.827423,274.008728 182.305573,274.024841 
	C181.635315,270.005127 181.380066,265.979584 181.526505,261.426666 
	C183.219955,260.617615 184.511703,260.335938 185.803467,260.054260 
	C185.906143,264.420105 186.008820,268.785950 186.076294,273.569946 
z"/>
<path fill="#5735AF" opacity="1.000000" stroke="none" 
	d="
M128.317108,244.983826 
	C127.093964,244.816360 126.049774,244.350845 124.714996,243.954391 
	C125.290344,241.561493 126.156296,239.099533 127.464523,236.274933 
	C128.959717,236.120651 130.012650,236.329010 131.065582,236.537354 
	C130.209076,239.253494 129.352570,241.969620 128.317108,244.983826 
z"/>
<path fill="#6D40B5" opacity="1.000000" stroke="none" 
	d="
M208.375488,258.499573 
	C212.225342,256.245483 211.784943,259.580048 212.752686,261.699951 
	C212.986130,263.703064 213.031708,265.432526 212.613342,267.581635 
	C210.927322,268.006104 209.705246,268.010895 208.483170,268.015686 
	C208.422394,264.992615 208.361633,261.969574 208.375488,258.499573 
z"/>
<path fill="#57349F" opacity="1.000000" stroke="none" 
	d="
M256.956665,239.018951 
	C258.218353,238.649323 259.480072,238.279709 261.138672,237.858795 
	C261.941772,241.190689 262.347931,244.573868 262.503662,248.237518 
	C261.513885,247.393631 260.774567,246.269272 259.576019,244.741196 
	C258.396759,242.564651 257.676697,240.791794 256.956665,239.018951 
z"/>
<path fill="#412AA5" opacity="1.000000" stroke="none" 
	d="
M155.357529,247.007660 
	C156.310913,244.554001 157.264297,242.100357 158.364563,239.268646 
	C159.938232,239.770187 161.243546,240.186188 162.965378,240.734940 
	C162.238876,242.654068 161.666946,244.164886 160.492188,245.885071 
	C158.378769,246.398834 156.868149,246.703247 155.357529,247.007660 
z"/>
<path fill="#412AA5" opacity="1.000000" stroke="none" 
	d="
M131.384796,236.402344 
	C130.012650,236.329010 128.959717,236.120651 127.657089,235.968430 
	C127.548943,235.377991 127.538567,234.640854 127.860023,234.101501 
	C128.900375,232.356018 129.972092,230.606613 131.275940,229.065308 
	C131.470428,228.835388 133.787048,229.929428 133.755310,230.049377 
	C133.198029,232.155487 132.427933,234.205292 131.384796,236.402344 
z"/>
<path fill="#7B47BC" opacity="1.000000" stroke="none" 
	d="
M208.390274,268.420837 
	C209.705246,268.010895 210.927322,268.006104 212.516434,268.003845 
	C212.662277,270.445770 212.441086,272.885101 212.002808,275.666534 
	C210.486069,276.006989 209.186447,276.005341 207.497009,276.004059 
	C207.503937,273.611603 207.900650,271.218781 208.390274,268.420837 
z"/>
<path fill="#5735AF" opacity="1.000000" stroke="none" 
	d="
M233.479889,247.116028 
	C234.426407,246.187897 235.430283,245.605881 237.091843,245.225647 
	C238.636200,247.898956 239.522873,250.370468 240.409576,252.841980 
	C239.313492,253.242386 238.217422,253.642792 236.777588,254.331848 
	C235.468323,252.234390 234.502792,249.848282 233.479889,247.116028 
z"/>
<path fill="#5735AF" opacity="1.000000" stroke="none" 
	d="
M155.186005,247.345276 
	C156.868149,246.703247 158.378769,246.398834 160.288177,246.114197 
	C160.424835,246.698120 160.162720,247.262238 159.511658,248.238510 
	C159.074905,248.818222 159.058151,248.988922 159.072449,249.162781 
	C158.630508,250.973404 158.188583,252.784027 157.506531,254.842834 
	C156.116348,254.745621 154.966293,254.400223 153.454895,254.031769 
	C153.733871,251.900101 154.374176,249.791489 155.186005,247.345276 
z"/>
<path fill="#5E38AE" opacity="1.000000" stroke="none" 
	d="
M185.853424,259.608154 
	C184.511703,260.335938 183.219955,260.617615 181.605133,260.976868 
	C181.195999,259.951385 181.109909,258.848358 181.069962,257.328857 
	C182.338593,255.289871 183.561096,253.667343 185.123230,252.039597 
	C185.609695,254.410263 185.756546,256.786163 185.853424,259.608154 
z"/>
<path fill="#AE5FC7" opacity="1.000000" stroke="none" 
	d="
M204.134476,232.737793 
	C204.318497,231.460907 204.608261,229.858841 205.217682,228.110565 
	C205.104965,229.447113 204.672607,230.929855 204.134476,232.737793 
z"/>
<path fill="#4B2FA8" opacity="1.000000" stroke="none" 
	d="
M279.153015,98.756210 
	C278.776550,98.441803 278.460358,97.872482 278.157410,97.045616 
	C278.518188,97.359146 278.865723,97.930222 279.153015,98.756210 
z"/>
<path fill="#412AA5" opacity="1.000000" stroke="none" 
	d="
M159.144440,249.050690 
	C159.058151,248.988922 159.074905,248.818222 159.158569,248.548859 
	C159.265823,248.607864 159.273163,248.771713 159.144440,249.050690 
z"/>
<path fill="#5735AF" opacity="1.000000" stroke="none" 
	d="
M128.038269,247.811249 
	C127.977821,247.917313 127.798759,247.853546 127.590492,247.714905 
	C127.537941,247.700516 127.896309,247.701904 128.038269,247.811249 
z"/>
<path fill="#040205" opacity="1.000000" stroke="none" 
	d="
M267.168243,142.548615 
	C267.192047,148.372086 267.098358,153.739624 267.130280,159.561340 
	C267.131500,163.040482 267.007141,166.065414 266.663452,169.508118 
	C266.444122,169.925873 266.044739,170.078522 266.044739,170.078522 
	C264.261078,166.530701 262.477448,162.982895 260.411499,158.803848 
	C256.913147,153.389816 256.621399,148.327576 258.801331,142.668091 
	C258.018524,136.543564 254.828552,133.311340 249.861069,133.117371 
	C244.942474,132.925339 241.630966,135.677414 240.187469,141.433838 
	C239.683655,145.860245 241.007507,150.021622 244.800018,150.704285 
	C250.693756,151.765182 252.081909,156.223969 254.475677,160.194031 
	C257.338165,166.571991 260.200653,172.949936 263.202576,179.670547 
	C261.793762,183.673706 258.971680,184.927292 255.084564,185.033783 
	C249.778961,185.179138 244.473679,185.706848 239.193420,186.296066 
	C234.417236,186.829041 230.116104,187.571548 226.083649,183.178955 
	C222.950958,179.766495 217.219833,181.221069 214.201828,184.966736 
	C211.087631,188.831772 211.179672,194.478775 214.410385,197.762253 
	C217.672394,201.077545 224.381607,202.169662 226.993469,198.457901 
	C231.138245,192.567657 236.794662,193.250961 242.385330,192.670120 
	C245.967117,192.298019 249.563797,192.069565 253.759598,192.917389 
	C253.181580,193.204056 252.603577,193.490707 251.829681,194.008575 
	C243.110229,199.084732 234.586639,203.929688 225.839737,209.003159 
	C218.523315,213.253387 211.430222,217.275085 204.148499,221.572693 
	C203.216080,221.941711 202.472290,222.034836 201.086090,221.820282 
	C199.979401,220.060242 199.194412,218.626236 199.110031,217.152145 
	C198.840851,212.449265 198.831909,207.731476 198.843353,202.563919 
	C198.877396,196.744888 198.790543,191.381409 198.824371,185.562103 
	C198.873978,178.422028 198.802902,171.737778 198.858398,164.607193 
	C198.363586,157.722763 199.233871,151.799759 204.649429,147.381516 
	C204.935196,147.148376 204.841309,146.449905 205.105927,145.661469 
	C206.550491,143.619278 207.456619,141.333221 209.138046,140.243652 
	C216.295975,135.605301 223.683411,131.321152 231.342560,126.910492 
	C239.826431,122.018517 247.954819,117.123741 256.083191,112.228958 
	C257.856598,111.447205 259.568237,110.314659 261.421814,109.988434 
	C263.072540,109.697906 264.880371,110.299911 266.805115,111.216110 
	C267.087280,115.631195 267.183197,119.338188 267.279114,123.045174 
	C267.202972,129.394333 267.126862,135.743500 267.168243,142.548615 
z"/>
<path fill="#110A1C" opacity="1.000000" stroke="none" 
	d="
M218.757278,189.705688 
	C220.463287,189.230713 222.061951,188.825974 223.521912,189.117020 
	C223.933289,189.199020 224.443512,191.594467 223.990051,192.431046 
	C223.518021,193.301895 221.254807,194.265915 220.961044,193.978165 
	C219.902664,192.941452 219.344513,191.394028 218.757278,189.705688 
z"/>
<path fill="#110A1C" opacity="1.000000" stroke="none" 
	d="
M271.509460,189.598663 
	C268.152496,190.237900 266.631104,188.795517 267.370789,185.963455 
	C267.596680,185.098663 269.802307,184.750946 271.101288,184.166443 
	C271.350586,185.912506 271.599884,187.658539 271.509460,189.598663 
z"/>
<path fill="#040205" opacity="1.000000" stroke="none" 
	d="
M124.608994,166.312378 
	C124.572906,159.986237 124.636925,153.963348 124.607391,147.482788 
	C124.576370,139.341385 124.638908,131.657669 124.633308,123.513489 
	C124.687767,119.600342 124.744835,116.143715 124.951546,112.696068 
	C125.155441,109.295448 127.000717,108.292946 129.959351,109.842926 
	C133.755737,111.831772 137.444092,114.026802 141.762924,116.444748 
	C149.834763,121.013306 157.322662,125.270103 165.035156,129.759323 
	C172.336975,134.334351 179.414185,138.676941 186.414764,143.390778 
	C187.356674,146.233017 187.725967,149.495056 189.546341,150.989212 
	C192.260239,153.216782 192.867554,155.515518 192.702438,158.624039 
	C192.589905,160.742050 192.850494,162.879868 192.864822,165.470306 
	C192.844757,172.623352 192.904114,179.314957 192.867645,186.464966 
	C192.831497,192.284027 192.891174,197.644669 192.853806,203.463684 
	C192.732910,207.329681 192.920898,210.756332 192.616577,214.138687 
	C192.383347,216.731171 191.528717,219.267746 190.950439,221.829178 
	C190.215683,221.903976 189.480942,221.978760 188.374268,222.024658 
	C180.593872,217.630676 173.185364,213.265594 165.430145,208.818695 
	C160.068817,205.948990 155.016251,203.226547 150.054398,200.347763 
	C147.244446,198.717484 144.583389,196.830612 141.512329,194.993713 
	C140.339691,194.178253 139.509979,193.428406 137.583786,191.687607 
	C145.603439,192.361084 152.429977,192.745834 159.185730,193.656067 
	C160.586990,193.844849 161.732147,195.977234 162.983795,197.225449 
	C166.202759,200.435669 169.844711,201.783127 174.233032,199.762222 
	C178.345200,197.868469 180.271255,194.554977 179.730362,190.146286 
	C179.171036,185.587509 176.502396,182.013626 171.880402,181.871490 
	C168.970917,181.781998 165.945618,183.840622 163.063324,185.137878 
	C161.524063,185.830673 160.177994,186.952667 158.092133,187.713470 
	C155.617783,187.145523 153.796051,186.745087 151.974304,186.344650 
	C148.933868,186.047897 145.893417,185.751144 142.189667,185.362427 
	C141.338593,185.302216 141.150818,185.333984 140.963028,185.365738 
	C137.103470,184.112427 131.945206,186.731720 129.145737,181.262802 
	C130.255859,177.275681 131.641724,173.520920 133.342468,169.180801 
	C135.281265,164.978226 136.815704,161.317215 138.558075,157.757980 
	C139.893723,155.029633 140.948044,152.380112 144.858932,151.667877 
	C149.779312,150.771790 151.800308,146.735931 151.455093,140.752258 
	C151.131943,139.731842 150.752289,139.017181 150.309875,138.021027 
	C149.725647,137.198441 149.204193,136.657379 148.534164,135.806580 
	C143.182968,132.039749 140.293762,132.150085 135.611267,136.152130 
	C134.483658,139.206116 132.146088,142.914230 133.168869,144.793640 
	C135.924332,149.856964 133.630035,153.524231 131.722717,157.633530 
	C130.131744,161.061264 128.680847,164.554016 127.167908,168.017975 
	C126.615204,168.533890 126.062508,169.049805 125.152122,169.899612 
	C124.976250,168.595917 124.842674,167.605774 124.608994,166.312378 
z"/>
<path fill="#201129" opacity="1.000000" stroke="none" 
	d="
M118.197159,184.681335 
	C119.812737,184.262604 121.445534,184.167999 123.473984,184.202728 
	C123.719620,186.201965 123.782562,188.134171 123.266808,189.897064 
	C123.141022,190.327042 120.337334,190.655182 120.101799,190.251038 
	C119.181641,188.672104 118.797668,186.780701 118.197159,184.681335 
z"/>
<path fill="#110A1C" opacity="1.000000" stroke="none" 
	d="
M173.244827,190.388458 
	C172.277847,191.874725 171.346054,193.261414 170.046356,194.005447 
	C169.666000,194.223206 167.687042,192.752167 167.447647,191.801620 
	C167.208893,190.853516 168.295349,188.609192 168.692276,188.634521 
	C170.198578,188.730591 171.660889,189.516037 173.244827,190.388458 
z"/>
<path fill="#693DAA" opacity="1.000000" stroke="none" 
	d="
M152.116089,186.678650 
	C153.796051,186.745087 155.617783,187.145523 157.722748,187.740906 
	C156.089935,187.628128 154.173920,187.320389 152.116089,186.678650 
z"/>
<path fill="#693DAA" opacity="1.000000" stroke="none" 
	d="
M140.970886,185.560394 
	C141.150818,185.333984 141.338593,185.302216 141.791412,185.375351 
	C141.697205,185.571854 141.337982,185.663467 140.970886,185.560394 
z"/>
<path fill="#020105" opacity="1.000000" stroke="none" 
	d="
M214.002686,72.301056 
	C220.912857,76.330757 227.521439,80.291756 234.479904,84.352379 
	C243.221603,89.385445 251.613388,94.318893 260.303650,99.441422 
	C260.924591,105.457527 254.986710,105.026718 251.868530,108.349197 
	C242.563232,113.859512 233.734512,118.911476 224.564758,124.038490 
	C218.881393,127.156456 213.503586,130.139328 208.210022,133.264816 
	C205.044113,135.134079 202.197998,137.149368 198.178329,134.813782 
	C196.753632,133.985977 194.037308,134.259689 192.444763,135.074463 
	C189.072159,136.799973 186.419464,135.739212 183.638580,134.050049 
	C179.004623,131.235275 174.355209,128.445953 169.477386,125.383545 
	C161.504929,120.725807 153.767410,116.330452 146.029892,111.935097 
	C142.377792,109.684502 138.676895,107.507874 135.097336,105.147278 
	C133.643921,104.188805 132.454529,102.829956 131.015961,101.328461 
	C136.652313,97.079704 142.412231,93.147675 148.189377,89.241158 
	C148.991196,88.698975 149.878128,88.282669 150.904556,87.518929 
	C159.108429,82.766838 167.133408,78.303909 175.402435,73.587555 
	C177.344955,72.536850 179.043411,71.739578 181.462463,70.604057 
	C181.131073,72.272873 180.938034,73.244942 180.428024,74.744644 
	C176.739365,79.847176 173.367691,84.422081 169.589294,88.930923 
	C168.355759,88.887337 167.510422,88.805618 166.705124,88.948914 
	C160.698654,90.017700 157.261581,94.776672 158.422943,100.353775 
	C159.543732,105.735985 164.687592,109.010887 170.055908,107.760033 
	C175.251266,106.549477 178.211365,101.411064 176.930679,95.771385 
	C176.638229,94.483521 176.234070,93.221016 176.136475,91.728455 
	C180.123138,86.053917 183.854660,80.597763 187.586182,75.141602 
	C188.516693,74.010429 189.513687,72.927002 190.366379,71.739937 
	C194.312195,66.246849 197.049820,66.205490 201.708740,72.163475 
	C205.916748,78.161911 209.733368,83.621559 213.737030,89.369980 
	C214.139191,91.823784 214.785309,94.050346 214.486679,96.142029 
	C213.670364,101.859451 216.736557,106.937241 221.968124,107.858910 
	C227.328201,108.803223 232.528000,105.147949 233.338928,99.865616 
	C234.153839,94.557404 230.474747,90.030495 224.830566,88.825714 
	C222.737411,88.378922 220.843857,86.996941 218.768387,85.714310 
	C215.447342,80.926300 212.217178,76.465424 208.987030,72.004547 
	C210.726669,68.598259 212.113449,72.493187 214.002686,72.301056 
z"/>
<path fill="#4B2FA8" opacity="1.000000" stroke="none" 
	d="
M169.996017,88.996979 
	C173.367691,84.422081 176.739365,79.847176 180.375061,75.080887 
	C182.621857,74.954163 184.604645,75.018829 187.086823,75.112549 
	C183.854660,80.597763 180.123138,86.053917 175.823471,91.591957 
	C173.502228,90.781563 171.749115,89.889275 169.996017,88.996979 
z"/>
<path fill="#412AA5" opacity="1.000000" stroke="none" 
	d="
M213.550003,89.081207 
	C209.733368,83.621559 205.916748,78.161911 201.987915,72.374222 
	C203.950745,72.031509 206.025757,72.016838 208.543900,72.003357 
	C212.217178,76.465424 215.447342,80.926300 218.345505,85.711266 
	C216.525681,87.050644 215.037842,88.065926 213.550003,89.081207 
z"/>
<path fill="#110A1C" opacity="1.000000" stroke="none" 
	d="
M192.586182,58.374451 
	C194.304977,54.501759 196.408371,54.142311 199.041290,57.728020 
	C196.670990,62.675793 195.438782,62.807320 192.586182,58.374451 
z"/>
<path fill="#633AB1" opacity="1.000000" stroke="none" 
	d="
M145.763947,112.154846 
	C153.767410,116.330452 161.504929,120.725807 169.067474,125.504974 
	C167.531845,127.101494 166.171219,128.314194 164.810577,129.526901 
	C157.322662,125.270103 149.834763,121.013306 142.116425,116.517403 
	C143.090012,114.977058 144.293991,113.675827 145.763947,112.154846 
z"/>
<path fill="#110A1C" opacity="1.000000" stroke="none" 
	d="
M118.207489,101.342514 
	C119.958046,97.543350 122.096214,96.674965 124.818512,100.707710 
	C123.115311,104.787857 120.989166,105.828369 118.207489,101.342514 
z"/>
<path fill="#110A1C" opacity="1.000000" stroke="none" 
	d="
M272.597290,99.045578 
	C272.215881,100.828651 271.771240,102.601913 270.751343,103.935089 
	C270.402954,104.390503 267.786530,104.013145 267.632141,103.545502 
	C267.168518,102.141449 267.408203,100.505188 267.631531,98.701950 
	C269.362640,98.584030 270.835663,98.723686 272.597290,99.045578 
z"/>
<path fill="#5E38AE" opacity="1.000000" stroke="none" 
	d="
M224.905792,123.963440 
	C233.734512,118.911476 242.563232,113.859512 251.668793,108.655609 
	C253.231293,109.492653 254.516937,110.481628 255.942902,111.849792 
	C247.954819,117.123741 239.826431,122.018517 231.213501,126.593140 
	C228.787903,125.503136 226.846848,124.733284 224.905792,123.963440 
z"/>
<path fill="#633AB1" opacity="1.000000" stroke="none" 
	d="
M267.621979,123.070625 
	C267.183197,119.338188 267.087280,115.631195 267.062042,111.468307 
	C270.690460,110.600571 272.288147,112.099976 272.029877,115.748383 
	C271.857483,118.183601 271.998596,120.641022 271.992676,123.554123 
	C270.645599,123.711861 269.305206,123.403969 267.621979,123.070625 
z"/>
<path fill="#AE5FC7" opacity="1.000000" stroke="none" 
	d="
M191.106079,222.179047 
	C191.528717,219.267746 192.383347,216.731171 192.616577,214.138687 
	C192.920898,210.756332 192.732910,207.329681 193.266937,203.461121 
	C195.425552,203.006592 197.074005,203.013016 198.722443,203.019440 
	C198.831909,207.731476 198.840851,212.449265 199.110031,217.152145 
	C199.194412,218.626236 199.979401,220.060242 200.708847,221.815445 
	C197.847626,224.881805 194.600296,224.784637 191.106079,222.179047 
z"/>
<path fill="#110A1C" opacity="1.000000" stroke="none" 
	d="
M194.289948,227.132416 
	C196.030823,227.687988 197.603592,228.247894 198.669876,229.314255 
	C198.973633,229.618027 198.080475,231.872330 197.234360,232.358109 
	C196.404526,232.834549 194.018646,232.428375 193.913651,232.009232 
	C193.546219,230.542526 193.868973,228.902939 194.289948,227.132416 
z"/>
<path fill="#7B47BC" opacity="1.000000" stroke="none" 
	d="
M258.683228,143.040436 
	C256.621399,148.327576 256.913147,153.389816 260.160980,158.548996 
	C258.548401,159.242188 256.904083,159.558990 254.867706,160.034912 
	C252.081909,156.223969 250.693756,151.765182 244.800018,150.704285 
	C241.007507,150.021622 239.683655,145.860245 240.545288,141.455444 
	C242.683533,141.398895 244.337036,141.703293 246.051697,142.354004 
	C247.177704,144.167557 248.242538,145.634811 249.962509,148.004745 
	C251.305405,145.303497 252.127197,143.650421 253.321594,141.991974 
	C255.357193,142.337875 257.020203,142.689163 258.683228,143.040436 
z"/>
<path fill="#57349F" opacity="1.000000" stroke="none" 
	d="
M266.049255,170.311188 
	C266.044739,170.078522 266.444122,169.925873 266.654602,169.962433 
	C267.019165,170.360168 267.173279,170.721344 267.327362,171.082504 
	C266.902832,170.902969 266.478302,170.723419 266.049255,170.311188 
z"/>
<path fill="#060409" opacity="1.000000" stroke="none" 
	d="
M243.613007,264.889893 
	C245.014267,256.095673 253.521378,257.259308 259.211761,254.562897 
	C261.109467,253.663666 264.489685,255.893097 267.492371,256.869141 
	C269.505188,263.537048 268.260651,266.081787 262.099609,268.567383 
	C259.805420,269.492920 257.477753,270.335114 255.170486,271.228516 
	C248.464310,273.825287 248.472946,273.824280 245.344513,267.242615 
	C244.958160,266.429810 244.438309,265.680450 243.613007,264.889893 
z"/>
<path fill="#060409" opacity="1.000000" stroke="none" 
	d="
M240.633728,253.138855 
	C239.522873,250.370468 238.636200,247.898956 237.530182,245.161194 
	C237.351700,244.239624 237.135117,243.370026 237.474045,242.962799 
	C240.246780,239.631516 252.261734,236.998215 256.627411,238.880646 
	C257.676697,240.791794 258.396759,242.564651 259.219482,244.692520 
	C257.578522,249.404343 246.716156,256.028717 242.423798,255.208206 
	C241.811264,255.091095 241.375473,254.049469 240.633728,253.138855 
z"/>
<path fill="#7B47BC" opacity="1.000000" stroke="none" 
	d="
M151.398605,141.058029 
	C151.800308,146.735931 149.779312,150.771790 144.858932,151.667877 
	C140.948044,152.380112 139.893723,155.029633 138.558075,157.757980 
	C136.815704,161.317215 135.281265,164.978226 133.400131,168.818863 
	C131.408173,168.700607 129.673462,168.358948 127.553322,168.017624 
	C128.680847,164.554016 130.131744,161.061264 131.722717,157.633530 
	C133.630035,153.524231 135.924332,149.856964 133.168869,144.793640 
	C132.146088,142.914230 134.483658,139.206116 136.019028,136.194443 
	C140.727097,136.076721 144.704926,136.096512 148.682755,136.116318 
	C149.204193,136.657379 149.725647,137.198441 150.257385,138.340240 
	C150.644638,139.646652 151.021622,140.352341 151.398605,141.058029 
M144.875656,144.447754 
	C144.451416,142.868423 144.246643,141.162125 143.455780,139.794830 
	C143.245819,139.431839 140.674728,139.714157 140.185989,140.405701 
	C139.494675,141.383881 139.261032,144.004532 139.655029,144.191910 
	C141.027039,144.844360 142.753693,144.751068 144.875656,144.447754 
z"/>
<path fill="#6D40B5" opacity="1.000000" stroke="none" 
	d="
M224.564758,124.038483 
	C226.846848,124.733284 228.787903,125.503136 230.858002,126.590347 
	C223.683411,131.321152 216.295975,135.605301 209.138046,140.243652 
	C207.456619,141.333221 206.550491,143.619278 204.891602,145.390366 
	C202.685394,144.620377 200.875290,143.814926 198.828003,142.744736 
	C196.350586,140.004532 194.396255,140.790237 192.186035,143.007141 
	C190.033508,143.010605 188.262466,143.015076 186.491409,143.019547 
	C179.414185,138.676941 172.336975,134.334351 165.035156,129.759323 
	C166.171219,128.314194 167.531845,127.101494 169.302399,125.767365 
	C174.355209,128.445953 179.004623,131.235275 183.638580,134.050049 
	C186.419464,135.739212 189.072159,136.799973 192.444763,135.074463 
	C194.037308,134.259689 196.753632,133.985977 198.178329,134.813782 
	C202.197998,137.149368 205.044113,135.134079 208.210022,133.264816 
	C213.503586,130.139328 218.881393,127.156456 224.564758,124.038483 
z"/>
<path fill="#7D47B6" opacity="1.000000" stroke="none" 
	d="
M199.065170,143.009460 
	C200.875290,143.814926 202.685394,144.620377 204.709839,145.696960 
	C204.841309,146.449905 204.935196,147.148376 204.649429,147.381516 
	C199.233871,151.799759 198.363586,157.722763 198.446259,164.602097 
	C196.253128,165.031830 194.598679,165.020340 192.944244,165.008835 
	C192.850494,162.879868 192.589905,160.742050 192.702438,158.624039 
	C192.867554,155.515518 192.260239,153.216782 189.546341,150.989212 
	C187.725967,149.495056 187.356674,146.233017 186.414764,143.390778 
	C188.262466,143.015076 190.033508,143.010605 192.231018,143.406372 
	C193.844437,144.893478 195.031387,145.980331 196.218338,147.067169 
	C197.167282,145.714600 198.116226,144.362030 199.065170,143.009460 
z"/>
<path fill="#9955C3" opacity="1.000000" stroke="none" 
	d="
M192.864822,165.470306 
	C194.598679,165.020340 196.253128,165.031830 198.319702,165.048416 
	C198.802902,171.737778 198.873978,178.422028 198.415588,185.562286 
	C196.245224,186.014359 194.604340,186.010452 192.963470,186.006546 
	C192.904114,179.314957 192.844757,172.623352 192.864822,165.470306 
z"/>
<path fill="#693DAA" opacity="1.000000" stroke="none" 
	d="
M245.990540,142.007690 
	C244.337036,141.703293 242.683533,141.398895 240.672211,141.072891 
	C241.630966,135.677414 244.942474,132.925339 249.861069,133.117371 
	C254.828552,133.311340 258.018524,136.543564 258.801331,142.668091 
	C257.020203,142.689163 255.357193,142.337875 253.129608,141.725815 
	C250.065094,137.909058 247.956573,139.095276 245.990540,142.007690 
z"/>
<path fill="#A35AC5" opacity="1.000000" stroke="none" 
	d="
M192.867645,186.464966 
	C194.604340,186.010452 196.245224,186.014359 198.294891,186.018097 
	C198.790543,191.381409 198.877396,196.744888 198.843353,202.563904 
	C197.074005,203.013016 195.425552,203.006592 193.363983,203.002731 
	C192.891174,197.644669 192.831497,192.284027 192.867645,186.464966 
z"/>
<path fill="#693DAA" opacity="1.000000" stroke="none" 
	d="
M148.534164,135.806580 
	C144.704926,136.096512 140.727097,136.076721 136.341492,136.014618 
	C140.293762,132.150085 143.182968,132.039749 148.534164,135.806580 
z"/>
<path fill="#693DAA" opacity="1.000000" stroke="none" 
	d="
M151.455093,140.752258 
	C151.021622,140.352341 150.644638,139.646652 150.320160,138.621750 
	C150.752289,139.017181 151.131943,139.731842 151.455093,140.752258 
z"/>
<path fill="#5032AD" opacity="1.000000" stroke="none" 
	d="
M213.737030,89.369980 
	C215.037842,88.065926 216.525681,87.050644 218.436401,86.038406 
	C220.843857,86.996941 222.737411,88.378922 224.830566,88.825714 
	C230.474747,90.030495 234.153839,94.557404 233.338928,99.865616 
	C232.528000,105.147949 227.328201,108.803223 221.968124,107.858910 
	C216.736557,106.937241 213.670364,101.859451 214.486679,96.142029 
	C214.785309,94.050346 214.139191,91.823784 213.737030,89.369980 
M226.268585,96.352859 
	C224.714783,96.384575 223.069382,96.142494 221.662384,96.613106 
	C221.234558,96.756218 220.992645,99.174843 221.525589,99.986794 
	C222.058289,100.798401 224.426971,101.513596 224.670502,101.210434 
	C225.619644,100.028870 226.044815,98.426414 226.268585,96.352859 
z"/>
<path fill="#5032AD" opacity="1.000000" stroke="none" 
	d="
M169.589294,88.930923 
	C171.749115,89.889275 173.502228,90.781563 175.568329,91.810341 
	C176.234070,93.221016 176.638229,94.483521 176.930679,95.771385 
	C178.211365,101.411064 175.251266,106.549477 170.055908,107.760033 
	C164.687592,109.010887 159.543732,105.735985 158.422943,100.353775 
	C157.261581,94.776672 160.698654,90.017700 166.705124,88.948914 
	C167.510422,88.805618 168.355759,88.887337 169.589294,88.930923 
M169.888794,96.555222 
	C168.139465,96.479408 166.373886,96.275551 164.661835,96.493126 
	C164.452621,96.519714 164.006958,99.307365 164.599869,99.928192 
	C165.463242,100.832169 167.690384,101.683830 168.396179,101.196510 
	C169.467590,100.456772 169.732346,98.548691 169.888794,96.555222 
z"/>
<path fill="#201129" opacity="1.000000" stroke="none" 
	d="
M246.051697,142.354004 
	C247.956573,139.095276 250.065094,137.909058 252.757019,141.731201 
	C252.127197,143.650421 251.305405,145.303497 249.962509,148.004745 
	C248.242538,145.634811 247.177704,144.167557 246.051697,142.354004 
z"/>
<path fill="#110A1C" opacity="1.000000" stroke="none" 
	d="
M144.610580,144.694519 
	C142.753693,144.751068 141.027039,144.844360 139.655029,144.191910 
	C139.261032,144.004532 139.494675,141.383881 140.185989,140.405701 
	C140.674728,139.714157 143.245819,139.431839 143.455780,139.794830 
	C144.246643,141.162125 144.451416,142.868423 144.610580,144.694519 
z"/>
<path fill="#110A1C" opacity="1.000000" stroke="none" 
	d="
M198.828003,142.744736 
	C198.116226,144.362030 197.167282,145.714600 196.218338,147.067169 
	C195.031387,145.980331 193.844437,144.893478 192.612503,143.407379 
	C194.396255,140.790237 196.350586,140.004532 198.828003,142.744736 
z"/>
<path fill="#110A1C" opacity="1.000000" stroke="none" 
	d="
M226.466736,96.666679 
	C226.044815,98.426414 225.619644,100.028870 224.670502,101.210434 
	C224.426971,101.513596 222.058289,100.798401 221.525589,99.986794 
	C220.992645,99.174843 221.234558,96.756218 221.662384,96.613106 
	C223.069382,96.142494 224.714783,96.384575 226.466736,96.666679 
z"/>
<path fill="#110A1C" opacity="1.000000" stroke="none" 
	d="
M170.114288,96.846069 
	C169.732346,98.548691 169.467590,100.456772 168.396179,101.196510 
	C167.690384,101.683830 165.463242,100.832169 164.599869,99.928192 
	C164.006958,99.307365 164.452621,96.519714 164.661835,96.493126 
	C166.373886,96.275551 168.139465,96.479408 170.114288,96.846069 
z"/>
</svg>